<svg width="25" height="27" viewBox="0 0 25 27" fill="none" xmlns="http://www.w3.org/2000/svg">
<path d="M7.33612 11.3031H4.54018C4.28409 11.3031 4.07681 11.5104 4.07681 11.7665V14.5606C4.07681 14.8166 4.28409 15.0239 4.54018 15.0239H7.33612C7.5922 15.0239 7.79948 14.8166 7.79948 14.5606V11.7665C7.79948 11.5107 7.59189 11.3031 7.33612 11.3031ZM6.87275 14.0975H5.00354V12.2301H6.87275V14.0975Z" fill="#042565"/>
<path d="M13.8575 11.3031H11.0607C10.8046 11.3031 10.5973 11.5104 10.5973 11.7665V14.5606C10.5973 14.8166 10.8046 15.0239 11.0607 15.0239H13.8575C14.1136 15.0239 14.3209 14.8166 14.3209 14.5606V11.7665C14.3209 11.5107 14.1136 11.3031 13.8575 11.3031ZM13.3942 14.0975H11.524V12.2301H13.3942V14.0975Z" fill="#042565"/>
<path d="M7.33612 17.6704H4.54018C4.28409 17.6704 4.07681 17.878 4.07681 18.1338V20.9297C4.07681 21.1858 4.28409 21.3931 4.54018 21.3931H7.33612C7.5922 21.3931 7.79948 21.1858 7.79948 20.9297V18.1338C7.79948 17.878 7.59189 17.6704 7.33612 17.6704ZM6.87275 20.4663H5.00354V18.5971H6.87275V20.4663Z" fill="#042565"/>
<path d="M13.8575 17.6704H11.0607C10.8046 17.6704 10.5973 17.878 10.5973 18.1338V20.9297C10.5973 21.1858 10.8046 21.3931 11.0607 21.3931H13.8575C14.1136 21.3931 14.3209 21.1858 14.3209 20.9297V18.1338C14.3209 17.878 14.1136 17.6704 13.8575 17.6704ZM13.3942 20.4663H11.524V18.5971H13.3942V20.4663Z" fill="#042565"/>
<path d="M20.1756 17.6704H17.3809C17.1249 17.6704 16.9176 17.878 16.9176 18.1338V20.9297C16.9176 21.1858 17.1249 21.3931 17.3809 21.3931H20.1756C20.4317 21.3931 20.639 21.1858 20.639 20.9297V18.1338C20.639 17.878 20.4314 17.6704 20.1756 17.6704ZM19.7123 20.4663H17.8443V18.5971H19.7123V20.4663Z" fill="#042565"/>
<path d="M23.5786 2.98329H20.7641V2.4461C20.7641 1.49156 19.9878 0.714966 19.0339 0.714966C18.0794 0.714966 17.3028 1.49156 17.3028 2.4461V2.98329H14.1729V2.4461C14.1729 1.49156 13.3966 0.714966 12.4427 0.714966C11.4876 0.714966 10.7107 1.49156 10.7107 2.4461V2.98329H7.58171V2.4461C7.58171 1.49156 6.80573 0.714966 5.8515 0.714966C4.89636 0.714966 4.11945 1.49156 4.11945 2.4461V2.98329H1.313C1.05692 2.98329 0.84964 3.19057 0.84964 3.44665V25.7129C0.84964 25.9686 1.05692 26.1762 1.313 26.1762H23.5792C23.8353 26.1762 24.0426 25.9686 24.0426 25.7129V3.44665C24.042 3.19057 23.8347 2.98329 23.5786 2.98329ZM18.2292 2.4461C18.2292 2.00219 18.59 1.64169 19.0336 1.64169C19.4766 1.64169 19.8371 2.0025 19.8371 2.4461V4.81729C19.8371 5.26088 19.4766 5.62169 19.0336 5.62169C18.59 5.62169 18.2292 5.26088 18.2292 4.81729V2.4461ZM12.4424 1.64139C12.8854 1.64139 13.2459 2.00219 13.2459 2.44579V4.81698C13.2459 5.26057 12.8854 5.62138 12.4424 5.62138C11.9982 5.62138 11.6371 5.26057 11.6371 4.81698V3.49731C11.6389 3.48032 11.6423 3.46395 11.6423 3.44634C11.6423 3.42874 11.6389 3.41236 11.6371 3.39537V2.44579C11.6371 2.00219 11.9985 1.64139 12.4424 1.64139ZM5.04587 2.4461C5.04587 2.00219 5.40729 1.64169 5.85119 1.64169C6.29417 1.64169 6.65467 2.0025 6.65467 2.4461V4.81729C6.65467 5.26088 6.29417 5.62169 5.85119 5.62169C5.40698 5.62169 5.04587 5.26088 5.04587 4.81729V2.4461ZM23.1152 25.2492H1.77575V3.90971H4.11883V4.81698C4.11883 5.77151 4.89605 6.54811 5.85089 6.54811C6.8048 6.54811 7.58109 5.77151 7.58109 4.81698V3.90971H10.71V4.81698C10.71 5.77151 11.4872 6.54811 12.4421 6.54811C13.396 6.54811 14.1723 5.77151 14.1723 4.81698V3.90971H17.3022V4.81698C17.3022 5.77151 18.0788 6.54811 19.0333 6.54811C19.9872 6.54811 20.7635 5.77151 20.7635 4.81698V3.90971H23.1146V25.2492H23.1152Z" fill="#042565"/>
<path d="M20.6881 9.96376L18.3237 12.878L17.3374 11.9365C17.1524 11.7598 16.8592 11.7666 16.6822 11.9516C16.5055 12.1369 16.5123 12.4301 16.6973 12.6068L18.047 13.8953C18.1334 13.9777 18.2481 14.0235 18.367 14.0235C18.3769 14.0235 18.3864 14.0231 18.3963 14.0225C18.5255 14.0145 18.6453 13.9524 18.7269 13.852L21.4079 10.5479C21.5691 10.3493 21.5386 10.0574 21.3399 9.89611C21.1413 9.73455 20.8494 9.76513 20.6881 9.96376Z" fill="#042565"/>
</svg>
