<svg width="31" height="31" viewBox="0 0 31 31" fill="none" xmlns="http://www.w3.org/2000/svg">
<path d="M14.3072 3.97187C14.3799 3.97187 14.4707 4.0082 14.5494 4.11719C14.1982 3.61465 14.943 3.83262 14.9854 3.3543C15.4092 3.03945 15.2578 2.83359 15.3789 2.82148L15.5121 2.7125C15.2518 2.80938 15.1609 2.82754 15.0883 2.82754C15.0701 2.82754 15.052 2.82754 15.0338 2.82754C15.0156 2.82754 14.9914 2.82754 14.9672 2.82754C14.8764 2.82754 14.725 2.8457 14.3678 2.95469C13.5504 3.01523 12.9631 3.89922 12.6846 3.92344C12.4 4.0748 12.4121 4.10508 12.4787 4.10508C12.4969 4.10508 12.5211 4.09902 12.5453 4.09902C12.5695 4.09902 12.5877 4.09297 12.6059 4.09297C12.6725 4.09297 12.6543 4.12324 12.2668 4.30488C12.3576 4.3291 11.5887 4.66816 11.5826 5.20098C11.5584 5.40684 11.6432 5.54609 11.7824 5.54609C11.9035 5.54609 12.0549 5.45527 12.2184 5.2252C12.7633 4.59551 13.9137 4.53496 14.4102 4.15352C14.1014 4.1293 14.1619 3.97187 14.3072 3.97187ZM11.5402 4.18379C11.4857 4.18379 11.5584 4.11719 11.6371 4.05059C11.7219 3.98398 11.8187 3.91738 11.8187 3.91738C11.8187 3.91738 11.8188 3.91738 11.8127 3.92344C12.1396 3.79629 11.9398 3.76602 12.1154 3.68125C12.1094 3.68125 12.1094 3.68125 12.1033 3.68125C12.067 3.68125 12.1336 3.63281 12.1941 3.57832C12.2547 3.52988 12.3092 3.47539 12.2547 3.47539C12.2244 3.47539 12.1457 3.49355 12.0125 3.54805C12.0549 3.4875 12.2184 3.44512 12.4484 3.31797C12.1154 3.42695 11.8551 3.49355 11.8248 3.49355C11.8006 3.49355 11.9398 3.44512 12.3576 3.31797C12.3758 3.31797 12.3939 3.32402 12.4061 3.32402C12.4484 3.32402 12.4666 3.31191 12.4605 3.2998C12.4545 3.2877 12.4303 3.28164 12.3879 3.28164C11.7885 3.33008 11.3404 3.70547 11.4736 3.75391C11.5523 3.72969 11.6068 3.71758 11.6432 3.71758C11.7219 3.71758 11.6855 3.78418 11.5281 3.88105C11.6008 4.05059 10.3172 4.48652 10.1719 4.64395C10.2445 4.60156 10.293 4.58945 10.3172 4.58945C10.4141 4.58945 10.2869 4.77715 10.1598 4.86797C10.2385 4.94063 10.299 4.96484 10.3475 4.96484C10.4746 4.96484 10.5291 4.78926 10.6381 4.73477C10.6623 4.7832 10.6865 4.80742 10.7168 4.80742C10.8197 4.80742 10.9469 4.55312 11.0498 4.41992C11.0801 4.4502 11.1164 4.47441 11.1648 4.47441C11.2617 4.47441 11.407 4.3957 11.6371 4.17168C11.5887 4.17773 11.5523 4.18379 11.5402 4.18379ZM10.1477 5.29785C9.92969 5.43105 9.81465 5.48555 9.76621 5.48555C9.67539 5.48555 9.79648 5.31602 9.90547 5.14043C10.0145 4.9709 10.1113 4.80137 9.97207 4.80137C9.90547 4.80137 9.78437 4.8377 9.59062 4.93457C9.06387 5.28574 8.17383 6.25449 7.78027 6.25449C7.76816 6.25449 7.75605 6.25449 7.74395 6.25449C8.37969 5.78828 8.19199 4.87402 9.08203 4.63789C9.95996 4.13535 10.5594 4.29277 11.3404 3.71758C11.1104 3.83262 10.7713 3.95977 10.6926 3.95977C10.6441 3.95977 10.7168 3.89922 11.0316 3.74785C11.0014 3.75391 10.9771 3.75996 10.959 3.75996C10.7471 3.75996 12.3516 3.18477 12.4303 3.17266C11.7703 3.26348 10.7047 3.81445 10.5594 3.81445C10.5412 3.81445 10.5412 3.8084 10.5412 3.79629C10.5654 3.77813 10.5654 3.76602 10.5412 3.76602C10.4625 3.76602 10.1355 3.875 9.80254 3.98398C9.47559 4.09297 9.14258 4.20801 9.06992 4.20801C9.0457 4.20801 9.0457 4.1959 9.08203 4.17168C6.22422 5.79434 3.83867 8.53105 3.09395 11.7764C3.40273 12.4848 3.19082 13.835 3.69941 14.2285C4.28066 14.7189 3.20293 16.1418 3.4875 17.0197C3.77812 18.6061 5.03145 19.6898 5.16465 21.3125C5.39473 22.4266 6.23633 23.7889 6.5875 24.4973C6.85391 24.7637 7.58652 25.5326 7.71367 25.5326C7.76211 25.5326 7.73184 25.4176 7.53809 25.1088C7.41699 24.7637 6.71465 23.8615 7.05371 23.8615C7.07188 23.8615 7.09004 23.8615 7.11426 23.8676C6.69648 23.4438 8.04063 23.5588 7.10215 22.9836C6.99316 22.8504 6.96895 22.808 6.99316 22.808C7.02344 22.808 7.1082 22.8564 7.20508 22.9049C7.30801 22.9533 7.4291 23.0018 7.52598 23.0018C7.67734 23.0018 7.78027 22.8988 7.71973 22.5234C7.74395 22.5355 7.76816 22.5355 7.78633 22.5355C7.94375 22.5355 7.88926 22.2268 7.90137 21.918C7.91348 21.6092 7.99219 21.3004 8.41602 21.3004C8.46445 21.3004 8.51895 21.3064 8.57344 21.3125C9.5543 20.7797 8.70059 19.3084 9.82676 18.7695C9.78438 17.5465 8.14355 17.4859 7.52598 16.9895C7.42305 17.05 7.32617 17.0682 7.2293 17.0682C7.12031 17.0682 7.02344 17.0439 6.93867 17.0137C6.85391 16.9895 6.7752 16.9592 6.7207 16.9592C6.70859 16.9592 6.69648 16.9592 6.68438 16.9652C7.73789 16.6867 6.96895 15.2215 6.09707 15.2215C6.07891 15.2215 6.05469 15.2215 6.03652 15.2215C5.96992 14.5857 5.64297 14.8279 5.60664 14.3012C5.55215 14.3314 5.49766 14.3436 5.44316 14.3436C5.29785 14.3436 5.16465 14.2406 5.04961 14.1438C4.93457 14.0408 4.8377 13.9439 4.75293 13.9439C4.68633 13.9439 4.62578 14.0105 4.57129 14.2043C4.63184 13.9076 4.61367 13.8107 4.55312 13.8107C4.49258 13.8107 4.38359 13.9137 4.2625 14.0166C4.14746 14.1195 4.01426 14.2225 3.91133 14.2225C3.89922 14.2225 3.89316 14.2225 3.88105 14.2225C3.17266 13.7199 3.88711 12.8299 3.51172 12.1457C3.75391 11.8854 3.85078 11.4434 3.7418 11.4434C3.6873 11.4434 3.57832 11.5523 3.40879 11.849C3.1666 11.2314 3.8084 9.83281 4.35332 9.7541C4.37148 9.7541 4.38359 9.74805 4.40176 9.74805C4.49863 9.74805 4.59551 9.79648 4.68027 9.89941C4.72871 10.184 4.60762 10.7834 4.65605 10.7834C4.68027 10.7834 4.72871 10.6623 4.8498 10.3475C5.00723 9.62695 6.10918 9.10625 6.22422 8.66426C6.23027 8.67031 6.23027 8.67031 6.23633 8.67031C6.36348 8.67031 7.18086 7.9498 7.53809 7.87109C7.67734 7.73184 7.77422 7.6834 7.84688 7.6834C7.92559 7.6834 7.96797 7.74395 7.99824 7.79844C8.02852 7.85898 8.05273 7.91348 8.08301 7.91348C8.10723 7.91348 8.1375 7.87715 8.19199 7.77422C8.0043 7.40488 8.48867 7.05371 8.35547 7.05371C8.30703 7.05371 8.16172 7.10215 7.86504 7.22324C7.8166 7.24746 7.79238 7.25352 7.78027 7.25352C7.74395 7.25352 7.88926 7.15664 8.10117 7.05977C8.31309 6.96289 8.57949 6.86602 8.80352 6.86602C8.9125 6.86602 9.00937 6.89023 9.08203 6.95078C10.0205 6.72676 9.50586 6.41797 9.5543 6.41797C9.5543 6.41797 9.56035 6.41797 9.56641 6.41797C9.83281 6.26055 9.7541 5.66719 10.1477 5.29785ZM5.95176 7.77422C5.93965 7.77422 5.99414 7.69551 6.17578 7.47148C6.55117 7.19297 6.85391 7.00527 6.50879 6.82363C6.66016 6.75703 6.80547 6.67832 6.94473 6.59355C6.93867 6.89023 6.69043 7.61074 6.55723 7.61074C6.52695 7.61074 6.49668 7.56836 6.48457 7.47754C6.56328 7.33828 6.56934 7.28379 6.53906 7.28379C6.49062 7.28379 6.35137 7.40488 6.21816 7.53203C6.08496 7.64707 5.96387 7.77422 5.95176 7.77422ZM6.29688 7.9377C6.1334 7.9377 6.16367 7.83477 6.66621 7.73184C6.88418 7.70156 6.71465 7.71367 6.975 7.65313C6.7207 7.85898 6.43613 7.9377 6.29688 7.9377ZM15.7119 7.32617C15.7846 7.31406 15.8391 7.31406 15.8814 7.31406C16.057 7.31406 15.9783 7.38672 15.8754 7.45937C15.7725 7.53203 15.6453 7.60469 15.718 7.60469C15.7604 7.60469 15.8754 7.58047 16.1115 7.51387C17.3043 7.4291 15.6453 6.41797 15.9117 6.07891L15.8391 6.05469C15.3486 6.67832 16.166 6.69043 15.7119 7.32617ZM15.2154 7.35039C15.3002 7.35039 15.4092 7.25352 15.5242 6.98105C15.6816 6.79336 15.615 6.76914 15.4455 6.67832C14.9793 6.79941 15.0217 7.35039 15.2154 7.35039ZM19.3932 9.26973C19.375 9.26973 19.3629 9.27578 19.3508 9.28184C19.3992 9.29395 19.4477 9.30605 19.4961 9.30605C19.4477 9.28184 19.4174 9.26973 19.3932 9.26973ZM27.5246 10.7773C27.6275 11.0014 27.682 11.0922 27.6881 11.0922C27.7305 11.0922 26.9252 9.13047 26.5922 8.7793C24.8545 5.92148 21.9967 3.73574 18.7393 2.91836H18.7332C18.6484 2.91836 18.7453 2.96074 18.8604 3.00312C18.9754 3.04551 19.1146 3.08789 19.1146 3.08789C19.1146 3.08789 19.0238 3.05762 18.7453 2.97891C18.4365 2.88809 18.1217 2.82148 17.8008 2.79727C17.7463 2.81543 19.1268 3.36035 20.0531 3.64492C19.7443 3.54805 19.4234 3.46328 19.3447 3.46328C19.2902 3.46328 19.3447 3.49961 19.5688 3.59648C19.2963 3.51777 19.1812 3.48145 19.1691 3.48145C19.151 3.48145 19.5324 3.60859 19.8896 3.73574C20.2529 3.86289 20.598 3.99004 20.5012 3.99004C20.477 3.99004 20.4104 3.97793 20.3074 3.95977C20.6162 4.1293 20.7252 4.1959 20.707 4.1959C20.6768 4.1959 20.2953 4.01426 19.9018 3.83262C19.5143 3.65098 19.1207 3.46934 19.0662 3.46934C19.0359 3.46934 19.1146 3.52988 19.3811 3.6873C19.7443 3.84473 20.1076 4.00215 20.0047 4.00215C19.9562 4.00215 19.817 3.97188 19.5445 3.89316C20.15 4.20195 19.1146 4.08086 19.4658 4.49863C19.2721 4.31699 19.1934 4.25645 19.1752 4.25645C19.157 4.25645 19.2055 4.3291 19.2539 4.40176C19.3023 4.47441 19.3387 4.54707 19.2963 4.54707C19.2902 4.54707 19.2902 4.54707 19.2842 4.54707C19.708 5.00723 18.9875 4.59551 19.5021 5.00723C19.1146 4.83164 18.4547 4.54102 18.7514 4.54102C18.824 4.54102 18.9633 4.55918 19.1812 4.60762C18.7877 4.14746 17.6736 4.1293 17.6494 4.0748C17.3709 4.09297 17.3648 4.30488 17.4133 4.69238C17.4072 5.30391 16.8078 5.31602 16.8865 5.66719C16.8865 5.66113 16.8926 5.66113 16.8926 5.66113C16.9047 5.66113 16.9107 5.78223 16.9471 5.90937C16.9895 6.03047 17.0621 6.15762 17.2195 6.15762C17.3043 6.15762 17.4133 6.12129 17.5465 6.03047C17.7342 6.36953 17.9037 6.49062 18.0369 6.49062C18.2367 6.49062 18.3578 6.21816 18.3457 5.96992C18.1277 5.84883 17.8432 4.84375 18.158 4.84375C18.2064 4.84375 18.267 4.86797 18.3457 4.92246C17.8553 6.12734 20.2832 5.32207 18.9088 5.87305C19.2176 6.27871 18.715 6.26055 18.8604 6.75098C18.6242 6.81758 18.3639 6.87812 18.1338 6.87812C17.7947 6.87812 17.5344 6.73281 17.5646 6.22422C17.1408 6.44824 17.9885 7.20508 17.1469 7.20508H17.0984C16.6928 7.9498 15.173 7.69551 16.3658 8.48262C16.4324 8.82773 16.2145 8.88828 15.9359 8.88828C15.8633 8.88828 15.7846 8.88223 15.7059 8.87617C15.6271 8.87012 15.5484 8.87012 15.4758 8.87012C15.1609 8.87012 14.9369 8.94883 15.1307 9.43926C14.9914 9.94785 15.3184 10.1719 15.718 10.1719C16.2023 10.1719 16.7957 9.85703 16.8381 9.33633C17.0984 8.94277 17.4314 8.7793 17.7766 8.7793C18.3215 8.7793 18.8967 9.19102 19.2721 9.69961C19.3023 9.74805 19.3266 9.76621 19.3387 9.76621C19.3689 9.76621 19.3387 9.64512 19.3266 9.52402C19.3145 9.42715 19.3145 9.33027 19.3508 9.3C18.8119 9.14863 18.4002 8.49473 18.5818 8.49473C18.6424 8.49473 18.7695 8.56738 18.9754 8.76113C18.9875 8.76113 18.9996 8.76113 19.0057 8.76113C19.3447 8.76113 19.6111 9.02754 19.817 9.29395C20.0289 9.56035 20.1863 9.82676 20.3256 9.82676C20.3801 9.82676 20.4346 9.77832 20.483 9.66934C20.4588 9.63301 20.3982 9.53008 20.368 9.42715C20.3316 9.3 20.3316 9.17285 20.4951 9.17285C20.5617 9.17285 20.6525 9.19707 20.7797 9.24551C21.1914 9.13652 20.5193 8.06484 21.0643 8.06484C21.1187 8.06484 21.1854 8.07695 21.2701 8.10117C21.2641 8.28887 21.3488 8.35547 21.4275 8.35547C21.585 8.35547 21.7424 8.13144 21.3609 8.06484C21.5062 7.92559 21.591 7.87109 21.6516 7.87109C21.8635 7.87109 21.6939 8.57344 22.4266 8.57344C22.6748 9.16074 20.2711 8.61582 21.04 9.74199C21.2156 9.86914 21.4336 9.89336 21.6455 9.89336C21.7121 9.89336 21.7727 9.89336 21.8332 9.88731C21.8938 9.88731 21.9543 9.88125 22.0088 9.88125C22.3842 9.88125 22.6506 9.97207 22.4871 10.7471C22.2873 10.8924 22.0633 10.9408 21.8332 10.9408C21.6273 10.9408 21.4215 10.9045 21.2217 10.8682C21.0219 10.8318 20.8281 10.7955 20.6525 10.7955C20.3801 10.7955 20.1621 10.8863 20.0289 11.2012C19.3205 10.9105 18.3881 10.8984 18.4789 10.0205C17.2438 10.1961 15.9541 10.1053 15.0459 10.8621C14.9914 11.9701 13.0902 12.3273 13.5504 13.5867C12.9994 14.7492 14.2164 16.3779 15.4576 16.3779C15.5 16.3779 15.5484 16.3779 15.5908 16.3719C16.2689 16.3658 16.9531 16.0631 17.5525 16.0631C17.8613 16.0631 18.1398 16.1418 18.382 16.384C18.4365 16.3779 18.485 16.3719 18.5273 16.3719C19.4537 16.3719 18.2307 17.8432 19.3387 18.0914C20.3438 19.1328 18.7211 20.2045 19.5143 21.2035C19.599 21.9846 19.9865 22.6385 19.9865 23.4014C20.0895 23.4135 20.1863 23.4195 20.2893 23.4195C21.5668 23.4195 22.366 22.3055 23.1168 21.4639C22.8867 20.2045 24.9029 19.9562 24.2127 18.5455C23.8918 17.0016 25.7324 16.0873 25.6295 14.5434C25.6477 14.3254 25.5871 14.2588 25.4963 14.2588C25.4055 14.2588 25.2723 14.3254 25.1451 14.3859C25.0119 14.4525 24.8666 14.5131 24.7516 14.5131C24.6002 14.5131 24.4852 14.4102 24.473 14.0711C23.583 13.2416 23.1773 12.1154 22.3479 11.2012C23.4256 11.7219 24.0371 12.8965 24.5336 13.9621C24.576 13.9742 24.6184 13.9803 24.6668 13.9803C25.5447 13.9803 26.7678 11.8793 25.4357 11.3707C25.3631 11.5705 25.2662 11.6432 25.1512 11.6432C24.9514 11.6432 24.7213 11.401 24.5578 11.1648C24.3943 10.9227 24.3096 10.6805 24.4004 10.6805C24.4609 10.6805 24.5941 10.7773 24.8242 11.0316C25.0846 11.1951 25.3389 11.2375 25.6053 11.2375C25.8656 11.2375 26.132 11.1951 26.4105 11.1709C26.7617 11.3102 26.9131 11.7582 27.0221 11.7582C27.0402 11.7582 27.0645 11.74 27.0826 11.6977C27.3611 12.3637 27.682 13.5504 27.9727 13.8713C27.8213 12.8541 27.785 11.7764 27.5246 10.7773ZM24.1461 9.37871C23.4619 9.20312 23.2379 8.35547 22.699 7.86504C22.693 7.73184 22.8928 7.75605 22.8443 7.53203C23.5709 7.75605 23.3348 7.98008 23.2682 8.02246C23.5346 8.46445 24.2793 8.76719 24.1461 9.37871ZM14.7432 4.77109C14.0832 4.96484 13.9924 4.75293 14.1074 5.15859C14.1559 5.19492 14.2467 5.20703 14.3375 5.20703C14.6584 5.21309 15.0943 5.02539 14.7432 4.77109ZM24.4367 21.4518C25.3025 20.7191 25.4115 19.8473 25.4539 18.9633C25.0664 19.7201 23.916 20.5557 24.4367 21.4518ZM20.4951 9.64512C20.4891 9.65117 20.4891 9.65117 20.4891 9.65723C20.4951 9.66934 20.5012 9.66934 20.5012 9.66934C20.5012 9.66934 20.5012 9.66328 20.4951 9.64512ZM15.5 0C6.93867 0 0 6.93867 0 15.5C0 24.0613 6.93867 31 15.5 31C24.0613 31 31 24.0613 31 15.5C31 6.93867 24.0613 0 15.5 0ZM15.5 29.8072C7.59863 29.8072 1.19277 23.4014 1.19277 15.5C1.19277 7.59863 7.59863 1.19277 15.5 1.19277C23.4014 1.19277 29.8072 7.59863 29.8072 15.5C29.8072 23.4014 23.4014 29.8072 15.5 29.8072Z" fill="#042565"/>
</svg>
