<svg width="50" height="50" viewBox="0 0 50 50" fill="none" xmlns="http://www.w3.org/2000/svg">
<path d="M27.708 24.8627C27.3418 24.6757 26.891 24.8199 26.7035 25.1871L21.704 34.9587C21.5164 35.3259 21.6617 35.7757 22.0284 35.9632C22.1373 36.0189 22.2532 36.0453 22.3677 36.0453C22.6388 36.0453 22.9005 35.897 23.0323 35.6393L28.0313 25.8677C28.2204 25.5 28.0751 25.0508 27.708 24.8627Z" fill="#0085FF"/>
<path d="M32.9393 24.4896C32.6478 24.1985 32.1756 24.1985 31.8841 24.4896C31.5925 24.7806 31.5925 25.2538 31.8841 25.5448L36.6517 30.311L31.8841 35.0771C31.5925 35.3682 31.5925 35.8408 31.8841 36.1324C32.0298 36.2781 32.2209 36.3508 32.4119 36.3508C32.603 36.3508 32.794 36.2781 32.9398 36.1324L38.2358 30.8383C38.3756 30.6985 38.4542 30.5085 38.4542 30.3105C38.4542 30.1125 38.3756 29.9229 38.2358 29.7826L32.9393 24.4896Z" fill="#0085FF"/>
<path d="M17.8662 24.4901C17.5751 24.1985 17.1025 24.1985 16.8109 24.4901L11.5159 29.7836C11.3761 29.9234 11.2975 30.1135 11.2975 30.3115C11.2975 30.5095 11.3761 30.699 11.5159 30.8393L16.8109 36.1329C16.9567 36.2786 17.1478 36.3513 17.3388 36.3513C17.5298 36.3513 17.7209 36.2786 17.8667 36.1329C18.1582 35.8413 18.1582 35.3692 17.8667 35.0776L13.1 30.3115L17.8667 25.5453C18.1577 25.2538 18.1577 24.7816 17.8662 24.4901Z" fill="#0085FF"/>
<path d="M47.6985 4.1861H2.05273C1.64029 4.1861 1.30646 4.51993 1.30646 4.93236V44.8194C1.30646 45.2314 1.64029 45.5657 2.05273 45.5657H47.6985C48.1104 45.5657 48.4448 45.2314 48.4448 44.8194V4.93236C48.4448 4.51993 48.1104 4.1861 47.6985 4.1861ZM46.9522 5.67863V15.0627H2.799V5.67863H46.9522ZM2.799 44.0732V16.5553H46.9522V44.0732H2.799Z" fill="#0085FF"/>
<path d="M6.74726 10.8711H10.1751C10.5876 10.8711 10.9214 10.5373 10.9214 10.1249C10.9214 9.71243 10.5876 9.3786 10.1751 9.3786H6.74726C6.33482 9.3786 6.00099 9.71243 6.00099 10.1249C6.00099 10.5373 6.33482 10.8711 6.74726 10.8711Z" fill="#0085FF"/>
<path d="M14.0925 10.8711H17.5204C17.9328 10.8711 18.2667 10.5373 18.2667 10.1249C18.2667 9.71243 17.9328 9.3786 17.5204 9.3786H14.0925C13.6801 9.3786 13.3463 9.71243 13.3463 10.1249C13.3463 10.5373 13.6806 10.8711 14.0925 10.8711Z" fill="#0085FF"/>
</svg>
