<svg width="33" height="31" viewBox="0 0 33 31" fill="none" xmlns="http://www.w3.org/2000/svg">
<path d="M11.6621 5.81837C13.9602 5.34302 15.7757 4.904 15.7757 4.904C17.0248 4.75089 18.2485 4.4363 19.4161 3.96813C20.7969 4.35446 20.979 5.07083 20.979 5.07083C20.1787 5.25608 19.3628 5.36674 18.5419 5.40138C15.8676 5.05753 15.727 5.66028 15.727 5.66028C14.9196 7.53408 17.1883 7.37292 17.1883 7.37292C18.4325 7.16825 19.45 7.69476 21.9184 8.26631C23.4416 8.64688 25.0398 8.60815 26.5427 8.15425C28.1231 8.22896 33 5.77184 33 5.77184L30.4736 0.916442L28.6626 2.27598C28.6626 2.27598 27.6956 3.19702 25.4827 1.94544C23.6939 0.935367 24.24 1.34114 22.4943 0.516812C20.9226 -0.224622 20.0623 0.0491611 20.0623 0.0491611L15.7716 1.79197C13.9068 2.45255 12.9726 2.85163 12.9726 2.85163C9.15364 4.57908 8.10088 4.68451 8.10088 4.68451C8.19738 4.86667 8.38729 6.49892 11.6621 5.81837Z" fill="#042565"/>
<path d="M21.3378 25.1807C19.0393 25.6555 17.2243 26.095 17.2243 26.095C15.9752 26.2481 14.7515 26.5627 13.5839 27.0309C12.2032 26.6451 12.0209 25.9282 12.0209 25.9282C12.8213 25.7431 13.6372 25.6326 14.4581 25.5981C17.1324 25.942 17.2725 25.3387 17.2725 25.3387C18.0799 23.4644 15.8116 23.6261 15.8116 23.6261C14.5669 23.8308 13.5501 23.3043 11.0816 22.7327C9.55841 22.3521 7.96013 22.3909 6.45728 22.8448C4.87683 22.7706 0 25.2277 0 25.2277L2.52596 30.0826L4.33685 28.7235C4.33685 28.7235 5.30394 27.8025 7.51934 29.0541C9.30768 30.0642 8.76147 29.6579 10.5077 30.4822C12.0794 31.2247 12.9397 30.9504 12.9397 30.9504L17.2304 29.2076C19.0952 28.5475 20.0289 28.1484 20.0289 28.1484C23.8484 26.4204 24.9006 26.315 24.9006 26.315C24.8077 26.1375 24.6178 24.5001 21.3378 25.1807Z" fill="#042565"/>
<path d="M8.85441 12.8694C9.43629 13.1962 9.98081 13.5849 10.4785 14.0289C10.5257 14.0729 11.6329 15.0994 12.7786 15.0994C12.9925 15.1008 13.2048 15.0621 13.4043 14.9853C13.8469 15.2539 14.236 15.6017 14.552 16.0112V17.558C14.2054 17.6003 13.8799 17.7471 13.6192 17.9787C13.3584 18.2103 13.1747 18.5157 13.0927 18.8541C13.0927 18.8541 10.9985 18.9682 11.1935 21.0385C11.1935 21.0385 13.9294 24.0094 19.1245 21.0846C19.1245 21.0846 19.6275 19.3668 17.293 19.3668C17.18 18.8735 16.9094 18.43 16.5218 18.1032C16.1342 17.7763 15.6506 17.5837 15.1438 17.5544V15.3327C15.1571 14.5867 15.4538 13.8736 15.9739 13.3371C16.2328 13.4504 16.5124 13.5093 16.7951 13.5101C18.335 13.5101 19.7487 11.9239 19.8072 11.8579C20.3987 11.2214 21.0567 10.6497 21.77 10.1524C21.7999 10.1326 21.8243 10.1056 21.8409 10.0739C21.8575 10.0422 21.8658 10.0068 21.865 9.97102C21.8641 9.93526 21.8542 9.90032 21.8362 9.8694C21.8182 9.83848 21.7926 9.81259 21.7618 9.79419C21.0197 9.39041 20.1871 9.18041 19.3416 9.18376C18.6157 9.18427 17.8989 9.34523 17.2428 9.65503C16.192 10.1452 15.5447 10.7684 15.3173 11.5058C15.1627 12.0062 15.2135 12.5474 15.4585 13.0107C14.9308 13.5997 14.617 14.3485 14.5674 15.1367C14.3706 14.956 14.1621 14.7883 13.9432 14.6348C13.9604 14.6188 13.9744 14.5997 13.9843 14.5784C14.1444 14.1924 14.1444 13.7589 13.9843 13.3729C13.8176 13.0518 13.5849 12.7692 13.3014 12.5436C13.0178 12.318 12.6898 12.1544 12.3387 12.0636C11.9207 11.9132 11.4798 11.8362 11.0354 11.8358C10.2485 11.8348 9.4794 12.0697 8.82822 12.5102C8.79995 12.5313 8.77736 12.559 8.76249 12.5909C8.74762 12.6227 8.74092 12.6578 8.743 12.6929C8.74582 12.7291 8.75743 12.7641 8.77684 12.7949C8.79624 12.8256 8.82288 12.8512 8.85441 12.8694Z" fill="#042565"/>
</svg>
