<svg width="48" height="48" viewBox="0 0 48 48" fill="none" xmlns="http://www.w3.org/2000/svg">
<path d="M37 39H11" stroke="#0085FF" stroke-linecap="round" stroke-linejoin="round"/>
<path d="M24 41.5C23.7033 41.5 23.4133 41.588 23.1666 41.7528C22.92 41.9176 22.7277 42.1519 22.6142 42.426C22.5007 42.7001 22.4709 43.0017 22.5288 43.2926C22.5867 43.5836 22.7296 43.8509 22.9393 44.0607C23.1491 44.2704 23.4164 44.4133 23.7074 44.4712C23.9983 44.5291 24.2999 44.4994 24.574 44.3858C24.8481 44.2723 25.0824 44.08 25.2472 43.8334C25.412 43.5867 25.5 43.2967 25.5 43C25.5003 42.8029 25.4616 42.6078 25.3864 42.4257C25.3111 42.2436 25.2006 42.0781 25.0612 41.9388C24.9219 41.7994 24.7564 41.6889 24.5743 41.6136C24.3922 41.5384 24.1971 41.4997 24 41.5Z" fill="#0085FF"/>
<path d="M33 1H15C12.7909 1 11 2.79086 11 5V43C11 45.2091 12.7909 47 15 47H33C35.2091 47 37 45.2091 37 43V5C37 2.79086 35.2091 1 33 1Z" stroke="#0085FF" stroke-linecap="round" stroke-linejoin="round"/>
</svg>
