<svg width="30" height="22" viewBox="0 0 30 22" fill="none" xmlns="http://www.w3.org/2000/svg">
<path d="M20.0592 12.0533C14.9987 12.0533 10.8816 16.1701 10.8816 21.2306C10.8816 21.4782 11.0822 21.6791 11.33 21.6791H28.7884C29.0359 21.6791 29.2368 21.4782 29.2368 21.2306C29.2368 16.1704 25.1194 12.0533 20.0592 12.0533ZM11.7904 20.7825C12.0242 16.4245 15.6435 12.9502 20.0592 12.9502C24.4749 12.9502 28.0942 16.4245 28.328 20.7825H11.7904Z" fill="#042565"/>
<path d="M19.8798 10.8276C22.7975 10.8276 25.1712 8.45402 25.1712 5.53632C25.1712 2.61862 22.7975 0.244995 19.8798 0.244995C16.9621 0.244995 14.5885 2.61862 14.5885 5.53632C14.5885 8.45402 16.9621 10.8276 19.8798 10.8276ZM19.8798 1.14183C22.3028 1.14183 24.2743 3.11307 24.2743 5.53632C24.2743 7.95927 22.3028 9.93081 19.8798 9.93081C17.4569 9.93081 15.4853 7.95956 15.4853 5.53632C15.4853 3.11307 17.4569 1.14183 19.8798 1.14183Z" fill="#042565"/>
<path d="M7.5932 15.1922C8.67627 15.1922 9.73394 15.4807 10.6526 16.0263C10.8657 16.1528 11.1408 16.0825 11.2672 15.8697C11.3937 15.6568 11.3234 15.3818 11.1109 15.255C10.0538 14.6272 8.83741 14.2954 7.5935 14.2954C3.7688 14.2954 0.657681 17.4068 0.657681 21.2309C0.657681 21.4784 0.858272 21.6793 1.1061 21.6793H9.1776C9.42543 21.6793 9.62602 21.4784 9.62602 21.2309C9.62602 20.9834 9.42543 20.7825 9.1776 20.7825H1.57096C1.80114 17.6612 4.41422 15.1922 7.5932 15.1922Z" fill="#042565"/>
<path d="M7.50351 12.9202C9.7453 12.9202 11.5692 11.0964 11.5692 8.85459C11.5692 6.6128 9.7453 4.78894 7.50351 4.78894C5.26173 4.78894 3.43787 6.6128 3.43787 8.85459C3.43787 11.0964 5.26173 12.9202 7.50351 12.9202ZM7.50351 5.68578C9.25085 5.68578 10.6723 7.10726 10.6723 8.85459C10.6723 10.6019 9.25085 12.0234 7.50351 12.0234C5.75618 12.0234 4.3347 10.6019 4.3347 8.85459C4.3347 7.10726 5.75618 5.68578 7.50351 5.68578Z" fill="#042565"/>
</svg>
