<svg width="18" height="18" viewBox="0 0 18 18" fill="none" xmlns="http://www.w3.org/2000/svg">
<path fill-rule="evenodd" clip-rule="evenodd" d="M16.23 12.26L13.69 11.97C13.08 11.9 12.48 12.11 12.05 12.54L10.21 14.38C7.38001 12.94 5.06001 10.63 3.62001 7.79001L5.47001 5.94001C5.90001 5.51001 6.11001 4.91001 6.04001 4.30001L5.75001 1.78001C5.63001 0.77001 4.78001 0.0100098 3.76001 0.0100098H2.03001C0.90001 0.0100098 -0.0399899 0.95001 0.0300101 2.08001C0.56001 10.62 7.39001 17.44 15.92 17.97C17.05 18.04 17.99 17.1 17.99 15.97V14.24C18 13.23 17.24 12.38 16.23 12.26Z" fill="white"/>
</svg>
