<svg width="33" height="29" viewBox="0 0 33 29" fill="none" xmlns="http://www.w3.org/2000/svg">
<path d="M0.767502 28.3751H5.81625V19.0913H0.767502V28.3751Z" fill="#042565"/>
<path d="M7.37375 28.3751H12.4225V16.8601H7.37375V28.3751Z" fill="#042565"/>
<path d="M13.9713 28.375H19.0287V13.5H13.9713V28.375Z" fill="#042565"/>
<path d="M20.5775 28.3751H25.6262V9.58008H20.5775V28.3751Z" fill="#042565"/>
<path d="M27.1837 28.3751H32.2325V5.50256H27.1837V28.3751Z" fill="#042565"/>
<path d="M26.0633 1.16254C26.0633 1.11879 26.0545 1.08379 26.0458 1.04004C26.037 1.00504 26.0458 0.970039 26.037 0.935039C26.037 0.917539 26.0283 0.908789 26.0195 0.891289C26.0195 0.882539 26.0195 0.873789 26.0108 0.873789C26.0108 0.865039 26.002 0.856289 26.002 0.847539C25.967 0.768789 25.932 0.698789 25.8708 0.637539C25.8708 0.628789 25.862 0.620039 25.8533 0.620039C25.8533 0.620039 25.8533 0.611289 25.8445 0.611289C25.8445 0.611289 25.8358 0.602539 25.827 0.602539C25.7658 0.541289 25.7045 0.497539 25.6258 0.453789C25.617 0.453789 25.617 0.445039 25.6083 0.445039H25.5995C25.5908 0.445039 25.582 0.436289 25.5733 0.436289C25.5033 0.410039 25.4158 0.392539 25.337 0.383789C25.3283 0.383789 25.3283 0.383789 25.3108 0.383789C25.302 0.383789 25.2933 0.383789 25.2845 0.383789C25.2233 0.383789 25.1533 0.392539 25.0833 0.410039L19.0808 2.18629C18.6783 2.30004 18.4508 2.73754 18.5645 3.14879C18.6608 3.49004 18.9583 3.71754 19.2908 3.71754C19.3608 3.71754 19.4308 3.70879 19.5008 3.69129L22.397 2.83379C16.587 7.87379 9.377 11.3913 1.37074 13.0625C0.968244 13.15 0.705744 13.5613 0.784494 13.9813C0.854494 14.3488 1.16949 14.6025 1.51949 14.6025C1.57199 14.6025 1.61575 14.5938 1.66825 14.585C9.82325 12.8875 17.182 9.30879 23.1583 4.19004L22.3095 6.13254C22.1433 6.52629 22.3095 6.99004 22.6858 7.16504C22.7908 7.20879 22.8958 7.23504 22.992 7.23504C23.2808 7.23504 23.552 7.06879 23.6745 6.78004L25.9933 1.47754V1.46879C26.0108 1.43379 26.0108 1.39004 26.0195 1.35504C26.0283 1.31129 26.0458 1.26754 26.0545 1.21504C26.0545 1.19754 26.0633 1.18004 26.0633 1.16254Z" fill="#042565"/>
</svg>
