<svg width="18" height="17" viewBox="0 0 18 17" fill="none" xmlns="http://www.w3.org/2000/svg">
<g clip-path="url(#clip0)">
<path fill-rule="evenodd" clip-rule="evenodd" d="M17.915 8.50472C17.915 8.36287 17.8563 8.2274 17.7586 8.1254L12.4734 2.81343C12.2647 2.60359 11.9267 2.60412 11.7185 2.81343C11.5097 3.02275 11.5097 3.36275 11.7185 3.57206L16.0928 7.96815H1.36391C1.06919 7.96815 0.830002 8.20828 0.830002 8.50472C0.830002 8.80115 1.06919 9.04128 1.36391 9.04128H16.0922L11.7185 13.4374C11.5097 13.6467 11.5103 13.9867 11.7185 14.196C11.9272 14.4053 12.2652 14.4053 12.4734 14.196L17.7586 8.88403C17.8584 8.78362 17.9134 8.6455 17.915 8.50472Z" fill="#0085FF"/>
</g>
<defs>
<clipPath id="clip0">
<rect width="17.085" height="17" fill="white" transform="translate(0.830002)"/>
</clipPath>
</defs>
</svg>
