<svg width="48" height="48" viewBox="0 0 48 48" fill="none" xmlns="http://www.w3.org/2000/svg">
<path fill-rule="evenodd" clip-rule="evenodd" d="M20 28C21.1046 28 22 28.8954 22 30V42C22 43.1046 21.1046 44 20 44H6C4.89543 44 4 43.1046 4 42V30C4 28.8954 4.89543 28 6 28H20ZM42 18C43.1046 18 44 18.8954 44 20V42C44 43.1046 43.1046 44 42 44H28C26.8954 44 26 43.1046 26 42V20C26 18.8954 26.8954 18 28 18H42ZM20 4C21.1046 4 22 4.89543 22 6V22C22 23.1046 21.1046 24 20 24H6C4.89543 24 4 23.1046 4 22V6C4 4.89543 4.89543 4 6 4H20ZM42 4C43.1046 4 44 4.89543 44 6V12C44 13.1046 43.1046 14 42 14H28C26.8954 14 26 13.1046 26 12V6C26 4.89543 26.8954 4 28 4H42Z" fill="#0085FF"/>
</svg>
