<svg width="48" height="48" viewBox="0 0 48 48" fill="none" xmlns="http://www.w3.org/2000/svg">
<path d="M24.75 34.5H23.25V36H24.75V34.5Z" fill="#0085FF"/>
<path d="M21.75 34.5H20.25V36H21.75V34.5Z" fill="#0085FF"/>
<path d="M27.75 34.5H26.25V36H27.75V34.5Z" fill="#0085FF"/>
<path d="M6 3H4.5V4.5H6V3Z" fill="#0085FF"/>
<path d="M9 3H7.5V4.5H9V3Z" fill="#0085FF"/>
<path d="M12 3H10.5V4.5H12V3Z" fill="#0085FF"/>
<path d="M8.25 24H14.25C14.664 24 15 24.336 15 24.75C15 25.164 14.664 25.5 14.25 25.5H12C10.7595 25.5 9.75 26.5095 9.75 27.75C9.75 28.9905 10.7595 30 12 30H23.25C23.4495 30 23.6407 29.9205 23.7817 29.7788C23.9745 29.5853 28.5 24.9915 28.5 21C28.5 17.2425 26.5373 15 23.25 15C19.9627 15 18 17.2425 18 21C18 23.7675 20.1735 26.8207 21.5715 28.5H12C11.586 28.5 11.25 28.164 11.25 27.75C11.25 27.336 11.586 27 12 27H14.25C15.4905 27 16.5 25.9905 16.5 24.75C16.5 23.5095 15.4905 22.5 14.25 22.5H9.9285C11.3265 20.8208 13.5 17.7675 13.5 15C13.5 11.2425 11.5372 9 8.25 9C4.96275 9 3 11.2425 3 15C3 18.9915 7.5255 23.5852 7.71825 23.7787C7.85925 23.9205 8.0505 24 8.25 24ZM23.25 16.5C25.6688 16.5 27 18.0983 27 21C27 23.6423 24.3967 26.8582 23.25 28.1467C22.1033 26.8575 19.5 23.6423 19.5 21C19.5 18.0983 20.8312 16.5 23.25 16.5ZM8.25 10.5C10.6687 10.5 12 12.0982 12 15C12 17.6423 9.39675 20.8582 8.25 22.1467C7.10325 20.8582 4.5 17.6423 4.5 15C4.5 12.0982 5.83125 10.5 8.25 10.5Z" fill="#0085FF"/>
<path d="M10.5 14.25C10.5 13.0095 9.4905 12 8.25 12C7.0095 12 6 13.0095 6 14.25C6 15.4905 7.0095 16.5 8.25 16.5C9.4905 16.5 10.5 15.4905 10.5 14.25ZM7.5 14.25C7.5 13.836 7.836 13.5 8.25 13.5C8.664 13.5 9 13.836 9 14.25C9 14.664 8.664 15 8.25 15C7.836 15 7.5 14.664 7.5 14.25Z" fill="#0085FF"/>
<path d="M25.5 20.25C25.5 19.0095 24.4905 18 23.25 18C22.0095 18 21 19.0095 21 20.25C21 21.4905 22.0095 22.5 23.25 22.5C24.4905 22.5 25.5 21.4905 25.5 20.25ZM22.5 20.25C22.5 19.836 22.836 19.5 23.25 19.5C23.664 19.5 24 19.836 24 20.25C24 20.664 23.664 21 23.25 21C22.836 21 22.5 20.664 22.5 20.25Z" fill="#0085FF"/>
<path d="M44.25 0H3.75C1.68225 0 0 1.776 0 3.84375V35.25C0 37.3177 1.68225 39 3.75 39H16.9177L15.2302 43.5H10.5C10.0852 43.5 9.75 43.8353 9.75 44.25C9.75 46.3177 11.4323 48 13.5 48H34.5C36.5677 48 38.25 46.3177 38.25 44.25C38.25 43.8353 37.9147 43.5 37.5 43.5H32.7698L31.0823 39H44.25C46.3177 39 48 37.3177 48 35.25V3.84375C48 1.776 46.3177 0 44.25 0ZM3.75 1.5H44.25C45.4905 1.5 46.5 2.60325 46.5 3.84375V6H3V7.5H46.5V31.5H1.5V3.84375C1.5 2.60325 2.5095 1.5 3.75 1.5ZM34.5 46.5H13.5C12.522 46.5 11.688 45.873 11.3783 45H15.75H32.25H36.6217C36.312 45.873 35.478 46.5 34.5 46.5ZM31.1677 43.5H16.8323L18.5198 39H29.4795L31.1677 43.5ZM44.25 37.5H30H18H3.75C2.5095 37.5 1.5 36.4905 1.5 35.25V33H46.5V35.25C46.5 36.4905 45.4905 37.5 44.25 37.5Z" fill="#0085FF"/>
<path d="M30.75 18H36C36.4148 18 36.75 17.6648 36.75 17.25V14.25C36.75 13.8353 36.4148 13.5 36 13.5H30.75C30.3353 13.5 30 13.8353 30 14.25V17.25C30 17.6648 30.3353 18 30.75 18ZM31.5 15H35.25V16.5H31.5V15Z" fill="#0085FF"/>
<path d="M39 18H44.25C44.6648 18 45 17.6648 45 17.25V14.25C45 13.8353 44.6648 13.5 44.25 13.5H39C38.5853 13.5 38.25 13.8353 38.25 14.25V17.25C38.25 17.6648 38.5853 18 39 18ZM39.75 15H43.5V16.5H39.75V15Z" fill="#0085FF"/>
<path d="M45 19.5H30V21H45V19.5Z" fill="#0085FF"/>
<path d="M45 22.5H30V24H45V22.5Z" fill="#0085FF"/>
<path d="M45 25.5H30V27H45V25.5Z" fill="#0085FF"/>
<path d="M32.25 9.75H30V11.25H32.25V9.75Z" fill="#0085FF"/>
<path d="M36.75 9.75H33.75V11.25H36.75V9.75Z" fill="#0085FF"/>
<path d="M45 9.75H38.25V11.25H45V9.75Z" fill="#0085FF"/>
</svg>
