<svg width="38" height="32" viewBox="0 0 38 32" fill="none" xmlns="http://www.w3.org/2000/svg">
<path d="M19 0.0286865C22.4643 0.0286865 25.6785 1.13583 28.3 3.02154C30.9857 4.95726 33.05 7.70012 34.1285 10.9073C34.2143 11.1715 34.0785 11.4501 33.8143 11.5358C33.7571 11.5573 33.7 11.5644 33.6428 11.5644H4.34997C4.0714 11.5644 3.84997 11.343 3.84997 11.0644C3.84997 10.993 3.86426 10.9287 3.89283 10.8644C4.9714 7.67869 7.02854 4.94297 9.70711 3.02154C12.3285 1.13583 15.5357 0.0286865 19.0071 0.0286865H19ZM27.7143 3.82869C25.2643 2.0644 22.25 1.02869 19 1.02869C15.7428 1.02869 12.7357 2.0644 10.2857 3.82869C7.94997 5.50726 6.1214 7.84297 5.05711 10.5644H32.9428C31.8857 7.84297 30.05 5.50726 27.7143 3.82869ZM34.1071 21.1287C33.0285 24.3144 30.9714 27.0501 28.2928 28.9715C25.6714 30.8573 22.4643 31.9644 18.9928 31.9644C15.5285 31.9644 12.3143 30.8573 9.69283 28.9715C7.00711 27.0358 4.94283 24.293 3.86426 21.0858C3.77854 20.8215 3.91426 20.543 4.17854 20.4573C4.23568 20.4358 4.29283 20.4287 4.34997 20.4287H33.6428C33.9214 20.4287 34.1428 20.6501 34.1428 20.9287C34.1428 21.0001 34.1285 21.0644 34.1 21.1287H34.1071ZM27.7143 28.1644C30.05 26.4858 31.8785 24.1501 32.9428 21.4287H5.05711C6.11426 24.1501 7.94997 26.4858 10.2857 28.1644C12.7357 29.9287 15.75 30.9644 19 30.9644C22.2571 30.9644 25.2643 29.9287 27.7143 28.1644Z" fill="#0085FF"/>
<path d="M31.3286 26.1287C29.8429 27.943 27.9643 29.4216 25.8286 30.4359C23.7571 31.4216 21.4429 31.9716 19 31.9716C16.5571 31.9716 14.2429 31.4216 12.1714 30.4359C10.0214 29.4144 8.13571 27.9216 6.64285 26.1001C6.47142 25.8859 6.49999 25.5716 6.71428 25.4001C6.76428 25.3573 6.82856 25.3287 6.88571 25.3073C8.78571 24.5359 10.7643 23.943 12.8 23.543C14.8143 23.1501 16.8857 22.943 19 22.943C21.1143 22.943 23.1929 23.1501 25.2 23.543C27.2571 23.943 29.25 24.5501 31.1571 25.3287C31.4143 25.4359 31.5357 25.7216 31.4286 25.9787C31.4071 26.043 31.3714 26.093 31.3214 26.1359L31.3286 26.1287ZM25.4 29.5359C27.2071 28.6787 28.8214 27.4644 30.1357 25.9859C28.4857 25.3573 26.7714 24.8573 25 24.5144C23.0571 24.1359 21.0429 23.9359 18.9929 23.9359C16.9357 23.9359 14.9286 24.1359 12.9857 24.5144C11.2143 24.8644 9.49999 25.3573 7.84999 25.9859C9.17142 27.4644 10.7786 28.6716 12.5857 29.5359C14.5286 30.4573 16.7 30.9716 18.9929 30.9716C21.2857 30.9716 23.4571 30.4573 25.4 29.5359Z" fill="#0085FF"/>
<path d="M30.1429 6.01428C28.8214 4.53571 27.2143 3.32856 25.4072 2.46428C23.4643 1.54285 21.2929 1.02856 19 1.02856C16.7072 1.02856 14.5357 1.54285 12.5929 2.46428C10.7857 3.32142 9.17145 4.53571 7.85716 6.01428C9.50716 6.64285 11.2214 7.14285 12.9929 7.48571C14.9357 7.86428 16.95 8.06428 19 8.06428C21.0572 8.06428 23.0643 7.86428 25.0072 7.48571C26.7786 7.13571 28.4929 6.64285 30.1429 6.01428ZM25.8286 1.56428C27.9643 2.57856 29.8429 4.05714 31.3286 5.87142C31.3714 5.91428 31.4072 5.97142 31.4357 6.02856C31.5429 6.28571 31.4143 6.57142 31.1643 6.67856C29.25 7.45714 27.2572 8.06428 25.2072 8.46428C23.1929 8.85714 21.1214 9.06428 19.0072 9.06428C16.8929 9.06428 14.8143 8.85714 12.8072 8.46428C10.7714 8.06428 8.79288 7.47142 6.89288 6.69999C6.82859 6.67856 6.77145 6.64999 6.72145 6.60714C6.50716 6.43571 6.47859 6.12142 6.65002 5.90714C8.14288 4.07856 10.0286 2.59285 12.1786 1.57142C14.25 0.585706 16.5643 0.0357056 19.0072 0.0357056C21.45 0.0357056 23.7643 0.585706 25.8357 1.57142L25.8286 1.56428Z" fill="#0085FF"/>
<path d="M19 0.0286865C20.9429 0.0286865 22.7143 1.17869 24.15 3.12869C25.5643 5.0644 26.65 7.80012 27.2143 10.9787C27.2643 11.2501 27.0786 11.5073 26.8071 11.5573C26.7786 11.5644 26.7429 11.5644 26.7143 11.5644H11.2786C11 11.5644 10.7786 11.343 10.7786 11.0644C10.7786 11.0287 10.7857 10.993 10.7929 10.9573C11.3571 7.78583 12.4429 5.0644 13.85 3.13583C15.2786 1.18583 17.0571 0.0358294 19 0.0358294V0.0286865ZM23.3429 3.72154C22.1 2.02869 20.6 1.02869 19 1.02869C17.4 1.02869 15.9 2.02869 14.6571 3.72154C13.4143 5.4144 12.4429 7.79297 11.8857 10.5715H26.1214C25.5643 7.79297 24.5857 5.42154 23.35 3.72154H23.3429ZM27.2071 21.043C26.6429 24.2073 25.5571 26.9358 24.15 28.8644C22.7214 30.8144 20.9429 31.9644 19 31.9644C17.0571 31.9644 15.2857 30.8144 13.85 28.8644C12.4357 26.9287 11.35 24.193 10.7857 21.0144C10.7357 20.743 10.9214 20.4858 11.1929 20.4358C11.2214 20.4287 11.2571 20.4287 11.2857 20.4287H26.7214C27 20.4287 27.2214 20.6501 27.2214 20.9287C27.2214 20.9644 27.2143 21.0001 27.2071 21.0358V21.043ZM23.3429 28.2787C24.5857 26.5858 25.5571 24.2073 26.1143 21.4287H11.8786C12.4357 24.2073 13.4143 26.5787 14.65 28.2787C15.8929 29.9715 17.3929 30.9715 18.9929 30.9715C20.5929 30.9715 22.0929 29.9715 23.3357 28.2787H23.3429Z" fill="#0085FF"/>
<path d="M1.21429 10.5643H36.7857H37.2857V11.0643V20.9286V21.4286H36.7857H1.21429H0.714294V20.9286V11.0643V10.5643H1.21429ZM36.2929 11.5643H1.71429V20.4357H36.2929V11.5643Z" fill="#0085FF"/>
<path d="M5.60001 18.9002L3.82144 13.1002H4.83573L5.75716 16.4502L6.10001 17.693C6.1143 17.6287 6.2143 17.2287 6.40001 16.493L7.32144 13.093H8.33573L9.20716 16.4573L9.50001 17.5644L9.82859 16.443L10.8214 13.0859H11.7786L9.9643 18.8859H8.94287L8.02144 15.4073L7.79287 14.4144L6.62144 18.8787H5.59287L5.60001 18.9002ZM16.7929 18.9002L15.0143 13.1002H16.0286L16.95 16.4502L17.2929 17.693C17.3072 17.6287 17.4072 17.2287 17.5929 16.493L18.5143 13.093H19.5286L20.4 16.4573L20.6929 17.5644L21.0214 16.443L22.0143 13.0859H22.9714L21.1572 18.8859H20.1357L19.2143 15.4073L18.9857 14.4144L17.8143 18.8787H16.7857L16.7929 18.9002ZM27.9857 18.9002L26.2072 13.1002H27.2214L28.1429 16.4502L28.4857 17.693C28.5 17.6287 28.6 17.2287 28.7857 16.493L29.7072 13.093H30.7214L31.5929 16.4573L31.8857 17.5644L32.2143 16.443L33.2072 13.0859H34.1643L32.35 18.8859H31.3286L30.4072 15.4073L30.1786 14.4144L29.0072 18.8787H27.9786L27.9857 18.9002Z" fill="#0085FF"/>
</svg>
